<?xml version="1.0" encoding="UTF-8" standalone="no"?>
<svg
   version="1.1"
   width="512"
   height="255.99149"
   x="0"
   y="0"
   viewBox="0 0 511.989 255.98599"
   xml:space="preserve"
   class=""
   id="svg58"
   xmlns="http://www.w3.org/2000/svg"
   xmlns:svg="http://www.w3.org/2000/svg"><defs
     id="defs62" /><g
     id="g56"
     transform="translate(0,-234.66299)">
<path
   style="display:none"
   d="m 255.994,213.336 c -5.906,0 -10.672,-4.781 -10.672,-10.672 v -42.663 c 0,-5.891 4.766,-10.664 10.672,-10.664 5.874,0 10.655,4.773 10.655,10.664 v 42.663 c 0,5.891 -4.781,10.672 -10.655,10.672 z"
   fill="#f6bb42"
   data-original="#f6bb42"
   class=""
   id="path2" />
<path
   style="display:none"
   d="m 309.321,192 h -106.67 c -5.891,0 -10.656,4.773 -10.656,10.664 v 42.671 c 0,5.891 4.765,10.664 10.656,10.664 h 106.67 c 5.891,0 10.672,-4.773 10.672,-10.664 v -42.671 c 0,-5.89 -4.781,-10.664 -10.672,-10.664 z"
   fill="#434a54"
   data-original="#434a54"
   class=""
   id="path4" />
<g
   id="g10">
	<path
   d="M 479.989,362.653 H 330.648 c -5.891,0 -10.655,4.781 -10.655,10.688 v 106.652 c 0,5.891 4.765,10.656 10.655,10.656 h 149.341 c 5.875,0 10.656,-4.766 10.656,-10.656 V 373.341 c 0,-5.907 -4.781,-10.688 -10.656,-10.688 z"
   fill="#fc6e51"
   data-original="#fc6e51"
   class=""
   id="path6" />
	<path
   d="M 181.324,319.997 H 31.999 c -5.906,0 -10.671,4.781 -10.671,10.656 v 149.34 c 0,5.891 4.765,10.656 10.671,10.656 h 149.325 c 5.891,0 10.672,-4.766 10.672,-10.656 v -149.34 c -0.001,-5.875 -4.782,-10.656 -10.672,-10.656 z"
   fill="#fc6e51"
   data-original="#fc6e51"
   class=""
   id="path8" />
</g>
<path
   d="M 330.648,234.663 H 181.324 c -5.891,0 -10.671,4.781 -10.671,10.672 v 234.658 c 0,5.891 4.781,10.656 10.671,10.656 h 149.325 c 5.891,0 10.672,-4.766 10.672,-10.656 V 245.335 c -0.001,-5.89 -4.782,-10.672 -10.673,-10.672 z"
   fill="#ffce54"
   data-original="#ffce54"
   class=""
   id="path12" />
<path
   d="M 501.316,490.649 H 10.656 C 4.765,490.649 0,485.883 0,479.993 c 0,-5.89 4.765,-10.654 10.656,-10.654 h 490.661 c 5.891,0 10.672,4.764 10.672,10.654 0,5.89 -4.782,10.656 -10.673,10.656 z"
   fill="#434a54"
   data-original="#434a54"
   class=""
   id="path14" />
<g
   id="g20"
   style="display:none">
	<path
   d="m 200.542,138.674 c -1.234,0 -2.5,-0.219 -3.734,-0.688 -46.717,-17.515 -57.577,-80.256 -58.014,-82.912 -0.5,-3.094 0.375,-6.25 2.391,-8.641 2.031,-2.382 5,-3.765 8.141,-3.765 h 42.671 c 5.875,0 10.656,4.781 10.656,10.671 0,5.89 -4.781,10.664 -10.656,10.664 h -29.046 c 5.016,16.555 16.921,44.851 41.343,54.015 5.516,2.062 8.312,8.211 6.25,13.727 -1.612,4.28 -5.674,6.929 -10.002,6.929 z"
   fill="#f6bb42"
   data-original="#f6bb42"
   class=""
   id="path16" />
	<path
   d="m 311.415,138.674 c -4.312,0 -8.375,-2.648 -9.984,-6.929 -2.062,-5.516 0.734,-11.664 6.25,-13.727 24.546,-9.211 36.404,-37.476 41.373,-54.015 h -29.061 c -5.906,0 -10.672,-4.773 -10.672,-10.664 0,-5.891 4.766,-10.671 10.672,-10.671 h 42.654 c 3.141,0 6.109,1.383 8.141,3.765 2.016,2.391 2.891,5.547 2.391,8.641 -0.438,2.656 -11.297,65.397 -58.014,82.912 -1.234,0.469 -2.5,0.688 -3.75,0.688 z"
   fill="#f6bb42"
   data-original="#f6bb42"
   class=""
   id="path18" />
</g>
<path
   style="display:none"
   d="M 319.993,21.34 H 191.995 c -5.906,0 -10.672,4.773 -10.672,10.664 v 63.999 c 0,41.171 33.483,74.663 74.67,74.663 41.155,0 74.654,-33.492 74.654,-74.663 V 32.004 c 0.001,-5.89 -4.78,-10.664 -10.654,-10.664 z"
   fill="#ffce54"
   data-original="#ffce54"
   class=""
   id="path22" />
<path
   style="display:none"
   d="m 255.994,117.338 c -5.906,0 -10.672,-4.781 -10.672,-10.672 V 74.667 c 0,-5.891 4.766,-10.664 10.672,-10.664 5.874,0 10.655,4.773 10.655,10.664 v 31.999 c 0,5.891 -4.781,10.672 -10.655,10.672 z"
   fill="#e8aa3d"
   data-original="#e8aa3d"
   id="path24" />
<g
   id="g26">
</g>
<g
   id="g28">
</g>
<g
   id="g30">
</g>
<g
   id="g32">
</g>
<g
   id="g34">
</g>
<g
   id="g36">
</g>
<g
   id="g38">
</g>
<g
   id="g40">
</g>
<g
   id="g42">
</g>
<g
   id="g44">
</g>
<g
   id="g46">
</g>
<g
   id="g48">
</g>
<g
   id="g50">
</g>
<g
   id="g52">
</g>
<g
   id="g54">
</g>
</g></svg>
