<?xml version="1.0" encoding="UTF-8"?>
<svg class="" width="512" height="315.25" enable-background="new 0 0 512 512" version="1.1" viewBox="0 0 436.91 268.46" xml:space="preserve" xmlns="http://www.w3.org/2000/svg"><path class="" d="m68.266 207.12-48.211-140.63s60.324 167.68 126.14-27.047c0 0 71.293 210.95 137.11 0 0 0 54.84 189.32 131.62 32.453l-46.277 135.23z" fill="#b87333" data-original="#feda38"/><path class="" d="m368.64 213.95h-300.38c-2.918 0-5.5117-1.8555-6.457-4.6133l-48.215-140.63c-1.2148-3.5469 0.66016-7.4062 4.1914-8.6523 3.5547-1.2266 7.4219 0.60156 8.6875 4.125 6.2969 17.449 27.902 62.602 52.133 62.602h0.19531c14.039-0.14062 36.008-15.785 60.926-89.52 0.94141-2.7734 3.5391-4.6406 6.4648-4.6406 2.9297 0 5.5273 1.8672 6.4688 4.6406 8.4062 24.84 36.582 89.121 65.84 89.121 0.0781 0 0.15234-8e-3 0.23438-8e-3 13.871-0.16797 35.199-15.734 58.039-88.961 0.89453-2.8516 3.5312-4.793 6.5195-4.793h0.0664c3.0156 0.03516 5.6523 2.0312 6.4883 4.9258 6.9805 24.043 31.738 87.008 62.105 89.637 17.742 1.457 37.414-18.621 56.836-58.281 1.5781-3.2383 5.4141-4.6914 8.7461-3.3086 3.3242 1.3828 5.0117 5.1094 3.8477 8.5234l-46.281 135.22c-0.94922 2.7617-3.543 4.6133-6.4609 4.6133zm-295.5-13.652h290.62l26.746-78.148c-12.926 13.68-26.051 19.781-39.738 18.633-33.633-2.9258-56.711-51.391-67.441-79.879-18.953 52.906-40.113 78.832-64.434 79.117-0.13281 0-0.25781 8e-3 -0.39062 8e-3 -33.988 0-60.227-52.105-72.113-80.848-20.605 54.387-42.754 81.008-67.461 81.246-11.578 0.12109-22.406-6.0234-31.367-14.766z" data-original="#000000"/><path class="" d="m68.266 207.12h300.38v54.613h-300.38z" fill="#774416" data-original="#fcad3a"/><path class="" d="m368.64 268.56h-300.38c-3.7734 0-6.8242-3.0547-6.8242-6.8281v-54.613c0-3.7734 3.0508-6.8242 6.8242-6.8242h300.38c3.7734 0 6.8242 3.0508 6.8242 6.8242v54.613c0 3.7734-3.0508 6.8281-6.8242 6.8281zm-293.55-13.652h286.72v-40.961h-286.72z" data-original="#000000"/><path class="" d="m165.55 22.907c0 9.1328-7.4023 16.535-16.535 16.535-9.1289 0-16.535-7.4023-16.535-16.535 0-9.1328 7.4062-16.535 16.535-16.535 9.1328 0 16.535 7.4023 16.535 16.535z" fill="#b87333" data-original="#feda38"/><path class="" d="m149.01 46.267c-12.879 0-23.359-10.48-23.359-23.363 0-12.879 10.48-23.359 23.359-23.359 12.883 0 23.363 10.484 23.363 23.363s-10.48 23.359-23.363 23.359zm0-33.066c-5.3516 0-9.707 4.3555-9.707 9.707 0 5.3555 4.3555 9.707 9.707 9.707 5.3555 0 9.707-4.3555 9.707-9.707 0-5.3555-4.3516-9.707-9.707-9.707z" data-original="#000000"/><path class="" d="m297.81 22.907c0 9.1328-7.4023 16.535-16.535 16.535-9.1289 0-16.531-7.4023-16.531-16.535 0-9.1328 7.4023-16.535 16.531-16.535 9.1328 0 16.535 7.4023 16.535 16.535z" fill="#b87333" data-original="#feda38"/><path class="" d="m281.28 46.267c-12.879 0-23.359-10.48-23.359-23.363 0-12.879 10.48-23.359 23.359-23.359 12.883 0 23.363 10.484 23.363 23.363s-10.48 23.359-23.363 23.359zm0-33.066c-5.3516 0-9.707 4.3555-9.707 9.707 0 5.3555 4.3555 9.707 9.707 9.707 5.3555 0 9.7109-4.3516 9.7109-9.707 0-5.3516-4.3555-9.707-9.7109-9.707z" data-original="#000000"/><path class="" d="m430.08 55.974c0 9.1328-7.4023 16.535-16.531 16.535-9.1328 0-16.535-7.4023-16.535-16.535 0-9.1328 7.4023-16.535 16.535-16.535 9.1289 0 16.531 7.4023 16.531 16.535z" fill="#b87333" data-original="#feda38"/><path class="" d="m413.55 79.333c-12.883 0-23.363-10.48-23.363-23.359s10.48-23.359 23.363-23.359c12.879 0 23.359 10.48 23.359 23.359s-10.48 23.359-23.359 23.359zm0-33.066c-5.3555 0-9.707 4.3516-9.707 9.707 0 5.3555 4.3516 9.707 9.707 9.707 5.3516 0 9.707-4.3516 9.707-9.707 0-5.3555-4.3555-9.707-9.707-9.707z" data-original="#000000"/><path class="" d="m39.895 55.974c0 9.1328-7.4023 16.535-16.535 16.535-9.1289 0-16.531-7.4023-16.531-16.535 0-9.1328 7.4023-16.535 16.531-16.535 9.1328 0 16.535 7.4023 16.535 16.535z" fill="#b87333" data-original="#feda38"/><path class="" d="m23.359 79.333c-12.879 0-23.359-10.48-23.359-23.359s10.48-23.359 23.359-23.359c12.883 0 23.363 10.48 23.363 23.359s-10.484 23.359-23.363 23.359zm0-33.066c-5.3516 0-9.707 4.3516-9.707 9.707 0 5.3555 4.3555 9.707 9.707 9.707 5.3555 0 9.7109-4.3516 9.7109-9.707 0-5.3555-4.3555-9.707-9.7109-9.707z" data-original="#000000"/></svg>
