<?xml version="1.0" encoding="UTF-8"?>
<svg width="196pt" height="63pt" version="1.1" viewBox="0 0 196 63" xmlns="http://www.w3.org/2000/svg">
<defs>
<clipPath id="a">
<rect width="250" height="100"/>
</clipPath>
</defs>
<g transform="translate(0 -20)" clip-path="url(#a)">
<path d="m17.824 20.534c0.089-0.175 0.205-0.336 0.343-0.476 0.2-0.045 0.404-0.063 0.608-0.055 0.715 0.014 1.43 0 2.145 0h31.518 1.43c0.204-0.01 0.408 5e-3 0.608 0.045 0.222 0.249 0.405 0.53 0.543 0.834 1.14 1.973 2.281 3.946 3.423 5.918 0.222 0.329 0.409 0.679 0.558 1.046-0.253 0.193-0.523 0.364-0.806 0.51-0.255 0.164-0.521 0.308-0.798 0.431-0.171-0.232-0.322-0.478-0.453-0.736-1.113-1.944-2.248-3.874-3.351-5.823-0.076-0.109-0.143-0.259-0.293-0.276-0.397-0.037-0.795-0.045-1.192-0.024h-30.698-1.518c-0.203-0.01-0.407 6e-3 -0.606 0.048-0.139 0.139-0.255 0.3-0.343 0.476-0.307 0.563-0.636 1.115-0.953 1.668-4.608 7.967-9.212 15.937-13.811 23.909-0.593 1.005-1.151 2.03-1.759 3.028-0.082 0.128-0.146 0.267-0.19 0.412 0.036 0.189 0.113 0.367 0.224 0.524 0.355 0.582 0.686 1.175 1.027 1.764 5.05 8.736 10.101 17.48 15.152 26.234 0.217 0.345 0.36 0.745 0.656 1.036 0.412 0.051 0.829 0.064 1.244 0.038h31.584c0.417 0.026 0.835 0.013 1.249-0.038 0.211-0.231 0.384-0.494 0.513-0.779 0.972-1.684 1.945-3.368 2.917-5.053 0.147-0.294 0.32-0.574 0.517-0.837 0.268 0.109 0.525 0.241 0.768 0.396 0.3 0.15 0.582 0.333 0.841 0.546-0.143 0.331-0.314 0.649-0.51 0.953-1.112 1.923-2.224 3.843-3.337 5.761-0.193 0.314-0.319 0.688-0.6 0.938-0.2 0.039-0.404 0.054-0.608 0.046-0.746-0.015-1.492 0-2.236 0h-30.621-2.234c-0.204 9e-3 -0.408-7e-3 -0.608-0.048-0.226-0.274-0.416-0.575-0.567-0.896-5.561-9.618-11.117-19.237-16.668-28.86-0.238-0.419-0.477-0.841-0.739-1.255-0.096-0.141-0.162-0.3-0.193-0.467 0.045-0.144 0.11-0.281 0.193-0.408 0.477-0.779 0.911-1.589 1.38-2.382 5.068-8.773 10.137-17.547 15.21-26.323 0.343-0.612 0.71-1.208 1.041-1.825z" fill="#cf4d4f"/>
<path d="m65.606 46.479c0-0.974-0.344-1.784-1.031-2.432s-1.547-0.972-2.58-0.972h-10.995v-3.075h10.995c0.938 0 1.825 0.173 2.662 0.519 0.836 0.347 1.563 0.811 2.181 1.394 0.619 0.583 1.111 1.268 1.478 2.057 0.368 0.788 0.551 1.625 0.551 2.509 0 1.186-0.252 2.168-0.758 2.946-0.502 0.778-1.051 1.406-1.647 1.882-0.709 0.559-1.511 1.001-2.405 1.327l5.328 10.042h-3.61l-4.98-9.718h-3.785v9.718h-3.261v-12.798h8.246c1.033 0 1.893-0.322 2.58-0.967 0.687-0.648 1.031-1.459 1.031-2.432zm6.179 10.69v-4.859c0-0.843 0.157-1.622 0.469-2.335 0.309-0.709 0.738-1.324 1.287-1.846 0.549-0.517 1.202-0.922 1.958-1.213 0.757-0.291 1.582-0.437 2.477-0.437 0.89 0 1.714 0.146 2.47 0.437s1.409 0.696 1.958 1.213c0.549 0.522 0.978 1.137 1.287 1.846 0.309 0.713 0.464 1.492 0.464 2.335v4.047h-9.277v0.812c0 0.734 0.263 1.349 0.79 1.846 0.528 0.497 1.18 0.746 1.958 0.746h5.498v2.915h-5.498c-0.869 0-1.658-0.135-2.367-0.406-0.709-0.267-1.321-0.645-1.838-1.131-0.516-0.487-0.918-1.065-1.205-1.733-0.287-0.672-0.431-1.418-0.431-2.237zm6.191-7.775c-0.873 0-1.608 0.282-2.204 0.844s-0.894 1.253-0.894 2.072v1.296h6.184v-1.296c0-0.819-0.296-1.51-0.889-2.072-0.596-0.562-1.328-0.844-2.197-0.844zm15.118-2.591h3.087v-3.887h-2.405v-2.916h5.497v22.676h-6.179c-0.873 0-1.664-0.135-2.373-0.406-0.712-0.267-1.325-0.645-1.838-1.131-0.516-0.487-0.918-1.065-1.205-1.733-0.287-0.672-0.431-1.418-0.431-2.237v-4.859c0-0.799 0.144-1.539 0.431-2.221 0.287-0.679 0.689-1.262 1.205-1.749 0.513-0.486 1.126-0.864 1.838-1.131 0.709-0.271 1.5-0.406 2.373-0.406zm-2.749 5.507v4.859c0 0.734 0.262 1.349 0.786 1.846 0.527 0.497 1.181 0.746 1.963 0.746h3.087v-10.043h-3.087c-0.782 0-1.436 0.249-1.963 0.746-0.524 0.497-0.786 1.112-0.786 1.846zm14.775 7.286v-16.521h-2.749v-3.075h9.103c1.076 0 2.072 0.183 2.989 0.55 0.916 0.367 1.712 0.869 2.389 1.507 0.676 0.637 1.209 1.388 1.598 2.252s0.583 1.803 0.583 2.818v8.422c0 1.015-0.194 1.954-0.583 2.818s-0.922 1.615-1.598 2.252c-0.677 0.638-1.473 1.14-2.389 1.507-0.917 0.367-1.913 0.55-2.989 0.55h-9.103v-3.08zm3.262-16.521v16.521h3.092c0.596 0 1.158-0.101 1.685-0.303 0.527-0.206 0.986-0.492 1.375-0.859s0.692-0.799 0.91-1.296c0.219-0.497 0.328-1.026 0.328-1.589v-8.422c0-0.562-0.109-1.092-0.328-1.589-0.218-0.497-0.521-0.929-0.91-1.296s-0.848-0.653-1.375-0.859c-0.527-0.205-1.089-0.308-1.685-0.308zm27.488 9.399v4.531c0 0.887-0.155 1.698-0.464 2.432-0.309 0.733-0.743 1.366-1.303 1.897-0.564 0.528-1.235 0.938-2.013 1.229s-1.636 0.437-2.574 0.437c-0.942 0-1.802-0.146-2.58-0.437s-1.449-0.701-2.013-1.229c-0.559-0.531-0.994-1.164-1.303-1.897-0.309-0.734-0.464-1.545-0.464-2.432v-4.531c0-0.887 0.155-1.698 0.464-2.432 0.309-0.733 0.744-1.366 1.303-1.897 0.564-0.528 1.235-0.938 2.013-1.229s1.638-0.437 2.58-0.437c0.938 0 1.796 0.146 2.574 0.437s1.449 0.701 2.013 1.229c0.56 0.531 0.994 1.164 1.303 1.897 0.309 0.734 0.464 1.545 0.464 2.432zm-9.621 0v4.531c0 0.908 0.303 1.648 0.911 2.221 0.607 0.572 1.392 0.859 2.356 0.859 0.96 0 1.743-0.287 2.35-0.859 0.608-0.573 0.911-1.313 0.911-2.221v-4.531c0-0.908-0.303-1.648-0.911-2.221-0.607-0.572-1.39-0.859-2.35-0.859-0.964 0-1.749 0.287-2.356 0.859-0.608 0.573-0.911 1.313-0.911 2.221zm17.18-5.671v1.62c0.276-0.367 0.62-0.691 1.031-0.972 0.341-0.237 0.771-0.458 1.287-0.664 0.516-0.205 1.118-0.308 1.805-0.308s1.34 0.135 1.958 0.406c0.618 0.268 1.167 0.645 1.647 1.131 0.484 0.487 0.862 1.07 1.135 1.749 0.276 0.682 0.414 1.422 0.414 2.221v10.69h-3.092v-10.69c0-0.734-0.264-1.349-0.791-1.846s-1.18-0.746-1.958-0.746c-0.527 0-1.002 0.086-1.424 0.258-0.425 0.174-0.787 0.359-1.085 0.555-0.367 0.236-0.676 0.505-0.927 0.807v11.662h-3.093v-12.958h-2.405v-2.915zm25.083 15.873h-7.216c-1.556 0-2.805-0.442-3.747-1.327-0.938-0.887-1.407-2.065-1.407-3.532s0.469-2.645 1.407-3.533c0.942-0.884 2.191-1.326 3.747-1.326h4.123v-0.972c0-0.648-0.229-1.188-0.687-1.62s-1.031-0.648-1.718-0.648h-4.467v-2.915h4.467c1.651 0 2.98 0.475 3.987 1.424 1.007 0.95 1.511 2.203 1.511 3.759zm-3.093-6.803h-4.123c-0.596 0-1.089 0.184-1.478 0.55-0.389 0.367-0.583 0.832-0.583 1.394s0.194 1.027 0.583 1.393c0.389 0.367 0.882 0.551 1.478 0.551h4.123zm8.59 1.296v-7.451h-3.092v-2.915h3.092v-5.183h3.093v5.183h3.436v2.915h-3.436v7.451c0 0.734 0.264 1.349 0.791 1.846s1.18 0.746 1.958 0.746h1.718v2.915h-1.718c-0.869 0-1.66-0.135-2.373-0.406-0.709-0.267-1.321-0.645-1.838-1.131-0.516-0.487-0.916-1.065-1.2-1.733-0.287-0.672-0.431-1.418-0.431-2.237zm9.621 0v-4.859c0-0.843 0.155-1.622 0.464-2.335 0.309-0.709 0.738-1.324 1.287-1.846 0.549-0.517 1.202-0.922 1.958-1.213s1.582-0.437 2.476-0.437c0.895 0 1.72 0.146 2.476 0.437 0.753 0.291 1.406 0.696 1.958 1.213 0.549 0.522 0.978 1.137 1.287 1.846 0.309 0.713 0.464 1.492 0.464 2.335v4.047h-9.277v0.812c0 0.734 0.263 1.349 0.791 1.846 0.527 0.497 1.179 0.746 1.958 0.746h5.497v2.915h-5.497c-0.869 0-1.66-0.135-2.373-0.406-0.709-0.267-1.322-0.645-1.838-1.131-0.516-0.487-0.916-1.065-1.2-1.733-0.287-0.672-0.431-1.418-0.431-2.237zm6.185-7.775c-0.869 0-1.601 0.282-2.198 0.844-0.596 0.562-0.894 1.253-0.894 2.072v1.296h6.185v-1.296c0-0.819-0.299-1.51-0.895-2.072s-1.329-0.844-2.198-0.844z"/>
<g>
<path d="m46.771 57.806c7e-3 -0.045 0.012-0.09 0.012-0.136v-1.403c0-0.345-0.195-0.645-0.479-0.798 6e-3 -0.045 0.011-0.09 0.011-0.137v-1.402c0-0.047-5e-3 -0.092-0.011-0.137 0.284-0.152 0.479-0.453 0.479-0.798v-1.403c0-0.499-0.407-0.905-0.906-0.905h-6.108c0-0.01 1e-3 -0.02 1e-3 -0.029v-1.403c0-0.345-0.194-0.646-0.478-0.798 6e-3 -0.045 0.011-0.09 0.011-0.137v-1.402c0-0.345-0.194-0.646-0.479-0.799 7e-3 -0.044 0.012-0.09 0.012-0.136v-1.403c0-0.046-5e-3 -0.091-0.012-0.136 0.285-0.153 0.479-0.453 0.479-0.799v-1.402c0-0.046-5e-3 -0.092-0.011-0.136 0.284-0.153 0.478-0.454 0.478-0.799v-1.402c0-0.345-0.194-0.646-0.478-0.799 6e-3 -0.044 0.011-0.09 0.011-0.136v-1.403c0-0.499-0.406-0.905-0.906-0.905h-6.544c-0.5 0-0.906 0.406-0.906 0.905v1.403c0 0.345 0.194 0.645 0.479 0.798-7e-3 0.045-0.012 0.09-0.012 0.137v1.402c0 0.047 5e-3 0.092 0.012 0.137-0.285 0.152-0.479 0.453-0.479 0.798v1.402c0 0.047 5e-3 0.092 0.011 0.137-0.284 0.153-0.478 0.453-0.478 0.798v1.403c0 0.01 1e-3 0.019 1e-3 0.029h-6.108c-0.499 0-0.906 0.406-0.906 0.906v1.402c0 0.345 0.195 0.646 0.479 0.799-6e-3 0.044-0.011 0.09-0.011 0.136v1.403c0 0.046 5e-3 0.091 0.011 0.136-0.284 0.153-0.479 0.453-0.479 0.798v1.403c0 0.046 5e-3 0.092 0.012 0.136-0.285 0.153-0.479 0.454-0.479 0.799v1.402c0 0.345 0.194 0.646 0.479 0.799-7e-3 0.044-0.012 0.09-0.012 0.136v1.403c0 0.345 0.195 0.645 0.479 0.798-6e-3 0.045-0.011 0.09-0.011 0.137v1.402c0 0.046 5e-3 0.092 0.011 0.136-0.284 0.153-0.479 0.454-0.479 0.799v1.402c0 0.5 0.407 0.906 0.906 0.906h6.545c0.171 0 0.331-0.049 0.467-0.131 0.137 0.082 0.297 0.131 0.468 0.131h14.024c0.499 0 0.906-0.406 0.906-0.906v-1.402c0-0.047-5e-3 -0.092-0.012-0.137 0.285-0.152 0.479-0.453 0.479-0.798v-1.402c0-0.346-0.194-0.646-0.479-0.799zm-0.427 0.769c0.016 0 0.029 0.013 0.029 0.03v1.402c0 0.016-0.013 0.029-0.029 0.029h-2.947c0.073-0.31 0.113-0.632 0.113-0.964 0-0.168-0.011-0.334-0.03-0.497zm-7.012 3.798c-1.82 0-3.301-1.481-3.301-3.301s1.481-3.302 3.301-3.302c1.821 0 3.302 1.482 3.302 3.302s-1.481 3.301-3.302 3.301zm-7.041-3.301c0-1.82 1.481-3.302 3.301-3.302 0.34 0 0.676 0.053 0.997 0.154-0.285 0.25-0.537 0.537-0.746 0.854-0.083-9e-3 -0.167-0.014-0.251-0.014-1.272 0-2.308 1.035-2.308 2.308s1.036 2.308 2.308 2.308c0.084 0 0.168-5e-3 0.251-0.014 0.209 0.317 0.461 0.604 0.746 0.853-0.321 0.102-0.657 0.154-0.997 0.154-1.82 0-3.301-1.481-3.301-3.301zm-1.373 0.964h-6.077c-0.016 0-0.03-0.013-0.03-0.029v-1.402c0-0.017 0.014-0.03 0.03-0.03h6.604c-0.019 0.163-0.031 0.329-0.031 0.497 0 0.332 0.041 0.654 0.114 0.964zm-6.545-2.337c-0.016 0-0.029-0.013-0.029-0.029v-1.403c0-0.016 0.013-0.029 0.029-0.029h6.545c0.016 0 0.029 0.013 0.029 0.029v1.403c0 0.016-0.013 0.029-0.029 0.029zm-0.467-2.338c-0.016 0-0.029-0.013-0.029-0.029v-1.402c0-0.016 0.013-0.029 0.029-0.029h6.544c0.016 0 0.03 0.013 0.03 0.029v1.402c0 0.016-0.014 0.029-0.03 0.029zm0.438-2.366v-1.403c0-0.016 0.013-0.029 0.029-0.029h6.545c0.016 0 0.029 0.013 0.029 0.029v1.403c0 0.016-0.013 0.029-0.029 0.029h-6.545c-0.016 0-0.029-0.013-0.029-0.029zm0.467-2.337v-1.403c0-0.016 0.014-0.029 0.03-0.029h6.544c0.016 0 0.029 0.013 0.029 0.029v1.403c0 0.016-0.013 0.029-0.029 0.029h-6.544c-0.016 0-0.03-0.013-0.03-0.029zm6.545-6.078c0-0.016 0.013-0.029 0.029-0.029h6.545c0.016 0 0.029 0.013 0.029 0.029v1.403c0 0.016-0.013 0.029-0.029 0.029h-6.545c-0.016 0-0.029-0.013-0.029-0.029zm0.467-0.935v-1.402c0-0.016 0.014-0.029 0.03-0.029h6.544c0.016 0 0.03 0.013 0.03 0.029v1.402c0 0.017-0.014 0.03-0.03 0.03h-6.544c-0.016 0-0.03-0.013-0.03-0.03zm0.468-2.337v-1.402c0-0.016 0.013-0.029 0.029-0.029h6.545c0.016 0 0.029 0.013 0.029 0.029v1.402c0 0.016-0.013 0.029-0.029 0.029h-6.545c-0.016 0-0.029-0.013-0.029-0.029zm6.106 5.581c0.016 0 0.03 0.013 0.03 0.029v1.402c0 0.016-0.014 0.029-0.03 0.029h-6.544c-0.016 0-0.03-0.013-0.03-0.029v-1.402c0-0.016 0.014-0.029 0.03-0.029h6.077zm0.468 2.337c0.016 0 0.029 0.013 0.029 0.029v1.403c0 0.016-0.013 0.029-0.029 0.029h-6.545c-0.016 0-0.029-0.013-0.029-0.029v-1.403c0-0.016 0.013-0.029 0.029-0.029h6.077zm6.574 4.704v1.402c0 0.016-0.014 0.029-0.03 0.029h-4.16c-0.575-0.298-1.226-0.467-1.917-0.467-0.168 0-0.333 0.011-0.496 0.031v-0.995c0-0.016 0.013-0.029 0.029-0.029h6.544c0.016 0 0.03 0.013 0.03 0.029zm0.438 2.308c0.016 0 0.029 0.013 0.029 0.029v1.403c0 0.016-0.013 0.029-0.029 0.029h-2.6c-0.191-0.548-0.493-1.044-0.879-1.461zm-8.413-0.902c-0.578-0.289-1.221-0.442-1.872-0.442-0.69 0-1.342 0.169-1.916 0.467h-2.291c-0.016 0-0.029-0.013-0.029-0.029v-1.402c0-0.016 0.013-0.029 0.029-0.029h6.545c0.016 0 0.029 0.013 0.029 0.029v1.197c-0.17 0.059-0.335 0.129-0.495 0.209zm0.963-3.744v1.403c0 0.016-0.014 0.029-0.03 0.029h-6.544c-0.016 0-0.03-0.013-0.03-0.029v-1.403c0-0.016 0.014-0.029 0.03-0.029h6.544c0.016 0 0.03 0.013 0.03 0.029zm-6.604 5.678v-1.003c0-0.01-1e-3 -0.019-1e-3 -0.029h0.704c-0.282 0.306-0.52 0.653-0.703 1.032zm3.58 3.221c-0.7-0.094-1.242-0.694-1.242-1.419s0.542-1.325 1.242-1.419c-0.161 0.443-0.249 0.921-0.249 1.419s0.088 0.975 0.249 1.419zm10.503-8.899v1.403c0 0.016-0.013 0.029-0.029 0.029h-6.545c-0.016 0-0.029-0.013-0.029-0.029v-1.403c0-0.016 0.013-0.029 0.029-0.029h6.545c0.016 0 0.029 0.013 0.029 0.029zm-14.083-14.024c0-0.016 0.014-0.029 0.03-0.029h6.544c0.016 0 0.03 0.013 0.03 0.029v1.403c0 0.016-0.014 0.029-0.03 0.029h-6.544c-0.016 0-0.03-0.013-0.03-0.029zm-7.479 9.35c0-0.016 0.013-0.029 0.029-0.029h6.545c0.016 0 0.029 0.013 0.029 0.029v1.402c0 0.016-0.013 0.029-0.029 0.029h-6.545c-0.016 0-0.029-0.013-0.029-0.029zm6.574 15.455h-6.545c-0.016 0-0.029-0.013-0.029-0.029v-1.402c0-0.016 0.013-0.029 0.029-0.029h6.545c0.016 0 0.029 0.013 0.029 0.029v1.402c0 0.016-0.013 0.029-0.029 0.029zm0.935 0c-0.016 0-0.03-0.013-0.03-0.029v-1.402c0-0.01 0-0.02-1e-3 -0.029h0.021c0.283 0.573 0.693 1.072 1.194 1.46zm14.053-0.029c0 0.016-0.013 0.029-0.029 0.029h-3.989c0.501-0.388 0.911-0.887 1.194-1.46h2.795c0.016 0 0.029 0.013 0.029 0.029z"/>
<path d="m39.332 56.764c-1.272 0-2.308 1.035-2.308 2.308s1.036 2.308 2.308 2.308c1.273 0 2.308-1.035 2.308-2.308s-1.035-2.308-2.308-2.308zm0 3.74c-0.789 0-1.431-0.643-1.431-1.432s0.642-1.432 1.431-1.432c0.79 0 1.432 0.643 1.432 1.432s-0.642 1.432-1.432 1.432z"/>
</g>
</g>
</svg>
