<?xml version="1.0" encoding="UTF-8" standalone="no"?><!-- Generator: Gravit.io --><svg xmlns="http://www.w3.org/2000/svg" xmlns:xlink="http://www.w3.org/1999/xlink" style="isolation:isolate" viewBox="0 0 434 70" width="434pt" height="70pt"><defs><clipPath id="_clipPath_Aac0MmGKt3yDZ2j8u5LwwEkIWpJcIxUO"><rect width="434" height="70"/></clipPath></defs><g clip-path="url(#_clipPath_Aac0MmGKt3yDZ2j8u5LwwEkIWpJcIxUO)"><g style="isolation:isolate"/><path d=" M 16.48 0 L 0 0 L 0 65.44 L 16.48 65.44 C 28.61 65.44 33.86 61.5 33.86 54.45 L 33.86 10.99 C 33.86 3.94 28.61 0 16.48 0 Z  M 16.48 58.8 L 8.44 58.8 L 8.44 6.65 L 16.48 6.65 C 23.37 6.65 25.5 8.2 25.5 10.99 L 25.5 54.45 C 25.5 57.24 23.37 58.8 16.48 58.8 Z  M 70.27 17.14 C 58.63 17.14 53.3 21 53.3 27.8 L 53.3 55.76 C 53.3 62.57 58.63 66.51 70.27 66.51 C 81.83 66.51 87.16 62.57 87.16 55.76 L 87.16 27.8 C 87.16 21 81.83 17.14 70.27 17.14 Z  M 70.27 60.03 C 63.46 60.03 61.33 59.04 61.33 55.76 L 61.33 27.8 C 61.33 24.6 63.46 23.62 70.27 23.62 C 76.99 23.62 79.13 24.6 79.13 27.8 L 79.13 55.76 C 79.13 59.04 76.99 60.03 70.27 60.03 Z  M 126.03 17.14 C 121.19 17.14 117.34 18.37 114.55 20.18 C 114.55 18.54 113.57 17.22 110.53 17.22 C 107.33 17.22 106.51 18.54 106.51 20.26 L 106.51 63.39 C 106.51 65.19 107.42 66.51 110.53 66.51 C 113.73 66.51 114.55 65.19 114.55 63.39 L 114.55 27.56 C 114.55 24.52 117.67 23.29 123.49 23.29 C 130.29 23.29 132.43 24.69 132.43 27.56 L 132.43 63.39 C 132.43 65.19 133.25 66.51 136.44 66.51 C 139.56 66.51 140.38 65.19 140.38 63.39 L 140.38 27.56 C 140.38 20.42 134.89 17.14 126.03 17.14 Z  M 176.79 17.14 C 166.21 17.14 159.81 20.26 159.81 27.31 L 159.81 30.59 C 159.81 32.07 160.63 33.38 163.83 33.38 C 166.87 33.38 167.85 32.31 167.85 30.59 L 167.85 27.31 C 167.85 24.6 170.06 23.29 176.79 23.29 C 183.59 23.29 185.73 24.6 185.73 27.31 L 185.73 38.38 C 183.18 37.4 180.15 36.82 176.79 36.82 C 165.31 36.82 159.9 40.76 159.9 47.56 L 159.9 55.76 C 159.9 62.57 165.23 66.51 176.79 66.51 C 188.35 66.51 193.68 62.57 193.68 55.76 L 193.68 27.15 C 193.68 20.18 188.35 17.14 176.79 17.14 Z  M 185.73 55.76 C 185.73 59.04 183.59 60.03 176.79 60.03 C 169.98 60.03 167.85 59.04 167.85 55.76 L 167.85 47.56 C 167.85 44.28 169.98 43.3 176.79 43.3 C 183.59 43.3 185.73 44.28 185.73 47.56 L 185.73 55.76 Z  M 237.71 18.13 L 230.5 18.13 L 230.5 6.73 C 230.5 4.92 229.76 3.61 226.56 3.61 C 223.36 3.61 222.54 4.92 222.54 6.73 L 222.54 18.13 L 215.33 18.13 C 214.02 18.13 213.11 18.7 213.11 21.08 C 213.11 23.54 214.02 24.11 215.33 24.11 L 222.54 24.11 L 222.54 63.39 C 222.54 65.19 223.36 66.51 226.56 66.51 C 229.68 66.51 230.5 65.19 230.5 63.39 L 230.5 24.11 L 237.71 24.11 C 239.03 24.11 239.85 23.54 239.85 21.08 C 239.85 18.7 239.03 18.13 237.71 18.13 Z  M 289.13 44.61 C 292 44.61 293.15 43.22 293.15 41.74 L 293.15 27.72 C 293.15 20.91 287.82 17.06 276.25 17.06 C 264.61 17.06 259.28 20.91 259.28 27.72 L 259.28 56.09 C 259.28 62.98 264.69 66.51 276.25 66.51 C 287.16 66.51 293.06 62.98 293.15 56.17 L 293.15 54.53 C 293.15 53.06 292.33 51.66 289.21 51.66 C 286.34 51.66 285.19 53.06 285.19 54.53 L 285.19 56.09 C 285.19 59.04 282.98 60.36 276.25 60.36 C 269.45 60.36 267.32 59.04 267.32 56.09 L 267.32 44.61 L 289.13 44.61 Z  M 276.25 23.54 C 282.98 23.54 285.11 24.52 285.11 27.72 L 285.11 38.63 L 267.32 38.63 L 267.32 27.72 C 267.32 24.52 269.45 23.54 276.25 23.54 Z  M 369.08 0 C 356.7 0 351.28 3.04 351.28 10.91 L 351.28 55.85 C 351.28 58.63 349.32 59.86 345.05 59.86 C 340.79 59.86 338.82 58.63 338.82 55.85 L 338.82 10.91 C 338.82 3.04 333.41 0 321.03 0 L 312.58 0 L 312.58 63.55 C 312.58 65.44 313.48 66.51 316.84 66.51 C 320.12 66.51 321.03 65.44 321.03 63.55 L 321.03 6.65 C 328.57 6.65 330.37 7.63 330.37 10.58 L 330.37 55.85 C 330.37 62.65 335.46 66.51 345.05 66.51 C 354.65 66.51 359.73 62.98 359.73 55.85 L 359.73 10.58 C 359.73 7.63 361.53 6.65 369.08 6.65 L 369.08 63.55 C 369.08 65.44 369.9 66.51 373.26 66.51 C 376.62 66.51 377.44 65.44 377.44 63.55 L 377.44 0 L 369.08 0 Z  M 426.64 44.61 C 429.51 44.61 430.66 43.22 430.66 41.74 L 430.66 27.72 C 430.66 20.91 425.33 17.06 413.77 17.06 C 402.12 17.06 396.79 20.91 396.79 27.72 L 396.79 56.09 C 396.79 62.98 402.21 66.51 413.77 66.51 C 424.67 66.51 430.58 62.98 430.66 56.17 L 430.66 54.53 C 430.66 53.06 429.84 51.66 426.72 51.66 C 423.85 51.66 422.71 53.06 422.71 54.53 L 422.71 56.09 C 422.71 59.04 420.49 60.36 413.77 60.36 C 406.96 60.36 404.83 59.04 404.83 56.09 L 404.83 44.61 L 426.64 44.61 Z  M 413.77 23.54 C 420.49 23.54 422.62 24.52 422.62 27.72 L 422.62 38.63 L 404.83 38.63 L 404.83 27.72 C 404.83 24.52 406.96 23.54 413.77 23.54 Z " fill="rgb(119,188,189)"/></g></svg>