<?xml version="1.0" encoding="UTF-8"?>
<svg class="" width="822.93" height="258" version="1.1" viewBox="0 0 822.91 258" xml:space="preserve" xmlns="http://www.w3.org/2000/svg"><g transform="translate(154.12 -232.65)">
<path class="" d="m255.99 213.34c-5.906 0-10.672-4.781-10.672-10.672v-42.663c0-5.891 4.766-10.664 10.672-10.664 5.874 0 10.655 4.773 10.655 10.664v42.663c0 5.891-4.781 10.672-10.655 10.672z" display="none" fill="#f6bb42" data-original="#f6bb42"/>
<path class="" d="m309.32 192h-106.67c-5.891 0-10.656 4.773-10.656 10.664v42.671c0 5.891 4.765 10.664 10.656 10.664h106.67c5.891 0 10.672-4.773 10.672-10.664v-42.671c0-5.89-4.781-10.664-10.672-10.664z" display="none" fill="#434a54" data-original="#434a54"/>
<g fill="#fc6e51">
	<path class="" d="m647.78 361.46h-149.34c-5.891 0-10.655 4.781-10.655 10.688v106.65c0 5.891 4.765 10.656 10.655 10.656h149.34c5.875 0 10.656-4.766 10.656-10.656v-106.65c0-5.907-4.781-10.688-10.656-10.688z" data-original="#fc6e51"/>
	<path class="" d="m20.947 318.44h-149.32c-5.906 0-10.671 4.781-10.671 10.656v149.34c0 5.891 4.765 10.656 10.671 10.656h149.32c5.891 0 10.672-4.766 10.672-10.656v-149.34c-1e-3 -5.875-4.782-10.656-10.672-10.656z" data-original="#fc6e51"/>
</g>
<path class="" d="m347.7 232.65h-149.32c-5.891 0-10.671 4.781-10.671 10.672v234.66c0 5.891 4.781 10.656 10.671 10.656h149.32c5.891 0 10.672-4.766 10.672-10.656v-234.66c-1e-3 -5.89-4.782-10.672-10.673-10.672z" fill="#ffce54" data-original="#ffce54"/>
<path class="" d="m651.64 490.65h-788.63c-9.4685 0-17.127-4.766-17.127-10.656s7.6587-10.654 17.127-10.654h788.63c9.4685 0 17.153 4.764 17.153 10.654s-7.686 10.656-17.155 10.656z" fill="#434a54" stroke-width="1.2678" data-original="#434a54"/>
<g display="none" fill="#f6bb42">
	<path class="" d="m200.54 138.67c-1.234 0-2.5-0.219-3.734-0.688-46.717-17.515-57.577-80.256-58.014-82.912-0.5-3.094 0.375-6.25 2.391-8.641 2.031-2.382 5-3.765 8.141-3.765h42.671c5.875 0 10.656 4.781 10.656 10.671s-4.781 10.664-10.656 10.664h-29.046c5.016 16.555 16.921 44.851 41.343 54.015 5.516 2.062 8.312 8.211 6.25 13.727-1.612 4.28-5.674 6.929-10.002 6.929z" data-original="#f6bb42"/>
	<path class="" d="m311.42 138.67c-4.312 0-8.375-2.648-9.984-6.929-2.062-5.516 0.734-11.664 6.25-13.727 24.546-9.211 36.404-37.476 41.373-54.015h-29.061c-5.906 0-10.672-4.773-10.672-10.664s4.766-10.671 10.672-10.671h42.654c3.141 0 6.109 1.383 8.141 3.765 2.016 2.391 2.891 5.547 2.391 8.641-0.438 2.656-11.297 65.397-58.014 82.912-1.234 0.469-2.5 0.688-3.75 0.688z" data-original="#f6bb42"/>
</g>
<path class="" d="m319.99 21.34h-128c-5.906 0-10.672 4.773-10.672 10.664v63.999c0 41.171 33.483 74.663 74.67 74.663 41.155 0 74.654-33.492 74.654-74.663v-63.999c1e-3 -5.89-4.78-10.664-10.654-10.664z" display="none" fill="#ffce54" data-original="#ffce54"/>
<path d="m255.99 117.34c-5.906 0-10.672-4.781-10.672-10.672v-31.999c0-5.891 4.766-10.664 10.672-10.664 5.874 0 10.655 4.773 10.655 10.664v31.999c0 5.891-4.781 10.672-10.655 10.672z" display="none" fill="#e8aa3d" data-original="#e8aa3d"/>















</g></svg>
