<svg width="50" height="50" viewBox="0 0 50 50" fill="none" xmlns="http://www.w3.org/2000/svg">
<g clip-path="url(#clip0_5_95)">
<path d="M42.3272 9.10369C39.1403 7.64148 35.723 6.56414 32.1498 5.94705C32.0848 5.93513 32.0197 5.96492 31.9862 6.02439C31.5467 6.80613 31.0599 7.82586 30.719 8.62742C26.8759 8.05203 23.0525 8.05203 19.2882 8.62742C18.9472 7.80808 18.4427 6.80613 18.0012 6.02439C17.9677 5.96687 17.9026 5.93709 17.8376 5.94705C14.2665 6.56209 10.8491 7.63943 7.66027 9.10369C7.63263 9.1156 7.609 9.13543 7.59327 9.16121C1.11124 18.8453 -0.664538 28.2914 0.206556 37.6203C0.210462 37.6659 0.236145 37.7095 0.271595 37.7374C4.54825 40.8781 8.69103 42.7847 12.7568 44.0486C12.8218 44.0684 12.8907 44.0447 12.9321 43.9911C13.8939 42.6777 14.7512 41.2928 15.4862 39.8365C15.5296 39.7512 15.4882 39.65 15.3995 39.6163C14.0397 39.1005 12.7448 38.4715 11.4992 37.7573C11.4007 37.6998 11.3928 37.5589 11.4835 37.4914C11.7456 37.295 12.0078 37.0906 12.2581 36.8843C12.3034 36.8466 12.3665 36.8386 12.4197 36.8624C20.6026 40.5984 29.4614 40.5984 37.5477 36.8624C37.6009 36.8366 37.664 36.8446 37.7112 36.8822C37.9616 37.0886 38.2237 37.2949 38.4878 37.4913C38.5784 37.5588 38.5725 37.6997 38.474 37.7572C37.2284 38.4853 35.9336 39.1004 34.5718 39.6142C34.4831 39.6479 34.4437 39.7511 34.4871 39.8364C35.238 41.2907 36.0953 42.6756 37.0393 43.989C37.0787 44.0446 37.1496 44.0684 37.2147 44.0485C41.3001 42.7847 45.4429 40.878 49.7195 37.7373C49.757 37.7095 49.7807 37.6678 49.7846 37.6222C50.8272 26.837 48.0384 17.4683 42.392 9.16316C42.3783 9.13543 42.3547 9.1156 42.3272 9.10369V9.10369ZM16.7084 31.9399C14.2448 31.9399 12.2149 29.6782 12.2149 26.9005C12.2149 24.1228 14.2054 21.861 16.7084 21.861C19.231 21.861 21.2413 24.1427 21.2019 26.9005C21.2019 29.6782 19.2112 31.9399 16.7084 31.9399ZM33.3224 31.9399C30.8589 31.9399 28.8289 29.6782 28.8289 26.9005C28.8289 24.1228 30.8195 21.861 33.3224 21.861C35.845 21.861 37.8553 24.1427 37.8159 26.9005C37.8159 29.6782 35.8451 31.9399 33.3224 31.9399Z" fill="#4B4B4B"/>
</g>
<defs>
<clipPath id="clip0_5_95">
<rect width="50" height="50" fill="white"/>
</clipPath>
</defs>
</svg>
