<svg width="50" height="50" viewBox="0 0 50 50" fill="none" xmlns="http://www.w3.org/2000/svg">
<g clip-path="url(#clip0_5_99)">
<path d="M48.9698 12.4778C48.3934 10.3358 46.7047 8.64744 44.5631 8.07066C40.6504 6.99988 24.9995 6.99988 24.9995 6.99988C24.9995 6.99988 9.34902 6.99988 5.4363 8.02984C3.33594 8.60624 1.60598 10.3362 1.02958 12.4778C0 16.3901 0 24.5039 0 24.5039C0 24.5039 0 32.6586 1.02958 36.5301C1.60636 38.6717 3.29474 40.3604 5.43668 40.9372C9.39022 42.008 24.9999 42.008 24.9999 42.008C24.9999 42.008 40.6504 42.008 44.5631 40.978C46.705 40.4016 48.3934 38.7129 48.9702 36.5713C49.9998 32.6586 49.9998 24.5451 49.9998 24.5451C49.9998 24.5451 50.041 16.3901 48.9698 12.4778Z" fill="#4B4B4B"/>
<path d="M20.0164 31.9916L33.031 24.4958L20.0164 16.9999V31.9916Z" fill="white"/>
</g>
<defs>
<clipPath id="clip0_5_99">
<rect width="50" height="50" fill="white"/>
</clipPath>
</defs>
</svg>
